# xmcd
#
# Track frame offsets: 
#        150
#        23132
#        39669
#        54710
#        80863
#        99004
#        118495
#        137622
#        151658
#        168403
#        181307
#        197356
#        215128
#        225483
#        246133
#        266067
#        287708
#        308467
#        322196
#        342562
#        343934
#
# Disc length: 4805 seconds
#
# Revision: 2
# Processed by: cddbd v1.5.2PL0 Copyright (c) Steve Scherf et al.
# Submitted via: ExactAudioCopy v1.3
#
DISCID=3612c315
DTITLE=LL Cool J - Exit 13
DYEAR=2008
DGENRE=Hip-Hop
TTITLE0=It's Time For War
TTITLE1=Old School New School
TTITLE2=Feel My Heart Beat (feat. 50 Cent)
TTITLE3=Get Over Here (feat. It's Ya Girl Nicolette, Jiz, Lyrikal and Ti
TTITLE3=cky Diamondz)
TTITLE4=Baby (feat. The-Dream)
TTITLE5=You Better Watch Me
TTITLE6=Cry
TTITLE7=Baby (Rock Remix) (feat. Richie Sambora)
TTITLE8=Rocking With The G.O.A.T.
TTITLE9=This Is Ring Tone M... (feat. Grandmaster Caz)
TTITLE10=Like A Radio (feat. Ryan Leslie)
TTITLE11=I Fall In Love (feat. Elan Of The Dey)
TTITLE12=UR Only A Customer
TTITLE13=Mr. President (feat. Wyclef Jean)
TTITLE14=American Girl
TTITLE15=Speedin' On Da Highway-Exit 13 (feat. Funkmaster Flex)
TTITLE16=Come And Party With Me (feat. Fat Joe and Sheek Louch)
TTITLE17=We Rollin'
TTITLE18=Dear Hip Hop
TTITLE19=New York, New York (Interlude) (Bonus Track)
TTITLE20=New York (Bonus Track)
EXTD=
EXTT0=
EXTT1=
EXTT2=
EXTT3=
EXTT4=
EXTT5=
EXTT6=
EXTT7=
EXTT8=
EXTT9=
EXTT10=
EXTT11=
EXTT12=
EXTT13=
EXTT14=
EXTT15=
EXTT16=
EXTT17=
EXTT18=
EXTT19=
EXTT20=
PLAYORDER=
